<svg preserveAspectRatio="none" overflow="visible" style="display: block;" width="16" height="16" viewBox="0 0 16 16" fill="none" xmlns="http://www.w3.org/2000/svg">
<g id="icon-wrapper" clip-path="url(#clip0_0_586)">
<path id="Union" d="M13.3334 -0.000825851C14.0405 -0.000709193 14.7182 0.280498 15.2182 0.780424C15.7183 1.28052 15.9994 1.95892 15.9994 2.66617V10.6662C15.9994 11.3733 15.7182 12.0519 15.2182 12.5519C14.7182 13.0516 14.0403 13.3321 13.3334 13.3322H11.3998L8.42815 15.841C8.30777 15.9428 8.15518 15.9992 7.99749 15.9992C7.83985 15.9991 7.68716 15.9428 7.56682 15.841L4.60003 13.3322H2.66643C1.95929 13.3322 1.28077 13.0519 0.78069 12.5519C0.280669 12.0519 -0.000474675 11.3733 -0.000559776 10.6662V2.66617C-0.000559776 1.95897 0.280658 1.28051 0.78069 0.780424C1.28079 0.280327 1.95919 -0.000825851 2.66643 -0.000825851H13.3334ZM2.66643 1.33218C2.31281 1.33218 1.97312 1.47276 1.72307 1.72281C1.47309 1.97285 1.33342 2.31259 1.33342 2.66617V10.6662C1.33351 11.0195 1.47327 11.3586 1.72307 11.6085C1.97312 11.8586 2.31281 11.9992 2.66643 11.9992H4.60003C4.91544 11.999 5.22051 12.1109 5.46135 12.3146L7.99944 14.4591L10.5385 12.3146C10.7791 12.1111 11.0847 11.9993 11.3998 11.9992H13.3334C13.6869 11.9991 14.0259 11.8585 14.2758 11.6085C14.5257 11.3586 14.6663 11.0196 14.6664 10.6662V2.66617C14.6664 2.31254 14.5259 1.97286 14.2758 1.72281C14.0259 1.47293 13.6868 1.3323 13.3334 1.33218H2.66643ZM11.3334 8.66617C11.5101 8.66628 11.6792 8.73656 11.8041 8.86148C11.929 8.98644 11.9994 9.1555 11.9994 9.33218C11.9994 9.50899 11.9292 9.67884 11.8041 9.80386C11.6792 9.92869 11.51 9.99906 11.3334 9.99917H4.66643C4.48962 9.99917 4.31978 9.92889 4.19475 9.80386C4.06977 9.67884 3.99944 9.50896 3.99944 9.33218C3.9995 9.1556 4.06998 8.98642 4.19475 8.86148C4.31978 8.73645 4.48962 8.66617 4.66643 8.66617H11.3334ZM11.3334 5.99917C11.51 5.99929 11.6792 6.06963 11.8041 6.19449C11.9292 6.31951 11.9994 6.48936 11.9994 6.66617C11.9994 6.84283 11.929 7.01193 11.8041 7.13687C11.6792 7.26179 11.5101 7.33207 11.3334 7.33218H4.66643C4.48962 7.33218 4.31978 7.26189 4.19475 7.13687C4.06997 7.01195 3.99953 6.84273 3.99944 6.66617C3.99944 6.4894 4.06979 6.3195 4.19475 6.19449C4.31978 6.06946 4.48962 5.99917 4.66643 5.99917H11.3334ZM7.99944 3.33218C8.17618 3.33218 8.34611 3.40257 8.47112 3.52749C8.59612 3.65249 8.6664 3.8224 8.66643 3.99917C8.66643 4.17598 8.59614 4.34583 8.47112 4.47085C8.3461 4.59584 8.17623 4.66617 7.99944 4.66617H4.66643C4.48962 4.66617 4.31978 4.59587 4.19475 4.47085C4.06973 4.34583 3.99944 4.17598 3.99944 3.99917C3.99947 3.8224 4.06975 3.65249 4.19475 3.52749C4.31977 3.40254 4.48967 3.33218 4.66643 3.33218H7.99944Z" fill="white"/>
</g>
<defs>
<clipPath id="clip0_0_586">
<rect width="16" height="16" fill="white"/>
</clipPath>
</defs>
</svg>
